<svg xmlns="http://www.w3.org/2000/svg" version="1.1" xmlns:xlink="http://www.w3.org/1999/xlink" xmlns:svgjs="http://svgjs.dev/svgjs" width="1500" height="159" viewBox="0 0 1500 159"><g transform="matrix(1,0,0,1,-0.9090909090909918,-0.18451162832083412)"><svg viewBox="0 0 396 42" data-background-color="#051726" preserveAspectRatio="xMidYMid meet" height="159" width="1500" xmlns="http://www.w3.org/2000/svg" xmlns:xlink="http://www.w3.org/1999/xlink"><g id="tight-bounds" transform="matrix(1,0,0,1,0.2400000000000091,0.04873892068852115)"><svg viewBox="0 0 395.52 41.90252215862296" height="41.90252215862296" width="395.52"><g><svg viewBox="0 0 420.754147 44.575900000000004" height="41.90252215862296" width="395.52"><g><svg viewBox="0 0 420.754147 44.575900000000004" height="44.575900000000004" width="420.754147"><g id="textblocktransform"><svg viewBox="0 0 420.754147 44.575900000000004" height="44.575900000000004" width="420.754147" id="textblock"><g><svg viewBox="0 0 420.754147 44.575900000000004" height="44.575900000000004" width="420.754147"><g><svg><g></g><g></g></svg></g><g><svg><g><svg></svg></g><g></g></svg></g><g id="text-0"><svg viewBox="0 0 420.754147 44.575900000000004" height="44.575900000000004" width="420.754147"><g transform="matrix(1,0,0,1,0,0.3190467741935521)"><svg width="395.52" viewBox="-12.65 -26.95 247.99 27.55" height="43.9378064516129" data-palette-color="#ffffff"><path d="M32.5 0L25.7 0 20.55-9.9 20.35-9.9 18.6 0 10.2 0 14.8-26.45 21.6-26.45 26.8-16.6 27.1-16.6 28.8-26.45 37.15-26.45 32.5 0ZM8.95-2.4L8.55-0.15-12.65-2.4 8.95-2.4ZM10.65-12.05L10.25-9.8-10.95-12.05 10.65-12.05ZM11.5-16.85L11.1-14.6-10.1-16.85 11.5-16.85ZM12.35-21.65L11.95-19.4-9.25-21.65 12.35-21.65ZM13.15-26.45L12.8-24.2-8.4-26.45 13.15-26.45ZM9.8-7.25L9.4-5-11.8-7.25 9.8-7.25ZM57.4 0L48.65 0 53.25-26.45 62.05-26.45 57.4 0ZM47.4-2.4L47-0.15 25.8-2.4 47.4-2.4ZM49.1-12.05L48.7-9.8 27.5-12.05 49.1-12.05ZM49.95-16.85L49.55-14.6 28.35-16.85 49.95-16.85ZM50.8-21.65L50.4-19.4 29.2-21.65 50.8-21.65ZM51.6-26.45L51.25-24.2 30.05-26.45 51.6-26.45ZM48.25-7.25L47.85-5 26.65-7.25 48.25-7.25ZM90.65-8.05L89.85-0.55Q87.15 0.6 82.35 0.6 77.55 0.6 75.27-1.43 73-3.45 73-7.8L73-7.8Q73-9.75 73.6-13.2L73.6-13.2Q74.85-20.45 77.92-23.7 81-26.95 87.75-26.95L87.75-26.95Q92.6-26.95 94.4-25.85L94.4-25.85 91.85-18.9Q89.35-19.6 87.3-19.6 85.25-19.6 84.42-19.25 83.6-18.9 83.4-17.9L83.4-17.9 81.45-7.2Q82.5-6.95 85.07-6.95 87.65-6.95 90.65-8.05L90.65-8.05ZM51.9-12.05L71.85-12.05Q71.65-10.5 71.6-9.95L71.6-9.95 51.9-12.05ZM52.8-16.85L72.8-16.85 72.35-14.75 52.8-16.85ZM52.1-7.25L71.55-7.25Q71.55-6.45 71.75-5.15L71.75-5.15 52.1-7.25ZM54.8-21.65L74.55-21.65Q73.95-20.35 73.7-19.65L73.7-19.65 54.8-21.65ZM56.45-2.4L72.6-2.4Q73.2-1.2 73.9-0.55L73.9-0.55 56.45-2.4ZM61.5-26.45L78.9-26.45Q77.7-25.75 76.85-24.8L76.85-24.8 61.5-26.45ZM118.44-6.2L118.44-6.2 113.59-6.2 112.49 0 104.09 0 108.69-26.45 121.39-26.45Q128.64-26.45 128.64-19.6L128.64-19.6Q128.64-16.5 127.74-13.9 126.84-11.3 125.79-9.8 124.74-8.3 122.82-7.25 120.89-6.2 118.44-6.2ZM118.94-14.4L119.54-17.8Q119.54-17.85 119.59-18.1L119.59-18.1Q119.59-19.15 117.44-19.15L117.44-19.15 115.84-19.15 114.79-12.95 116.34-12.95Q117.49-12.95 118.14-13.23 118.79-13.5 118.94-14.4L118.94-14.4ZM102.84-2.4L102.44-0.15 81.24-2.4 102.84-2.4ZM104.54-12.05L104.14-9.8 82.94-12.05 104.54-12.05ZM105.39-16.85L104.99-14.6 83.79-16.85 105.39-16.85ZM106.24-21.65L105.84-19.4 84.64-21.65 106.24-21.65ZM107.04-26.45L106.69-24.2 85.49-26.45 107.04-26.45ZM103.69-7.25L103.29-5 82.09-7.25 103.69-7.25ZM154.09-26.95L154.09-26.95Q159.49-26.95 161.79-24.88 164.09-22.8 164.09-18.4L164.09-18.4Q164.09-16.25 163.54-13.2L163.54-13.2Q162.29-6 159.14-2.7 155.99 0.6 149.24 0.6L149.24 0.6Q143.94 0.6 141.69-1.48 139.44-3.55 139.44-7.9L139.44-7.9Q139.44-10.15 139.99-13.2L139.99-13.2Q141.24-20.4 144.34-23.68 147.44-26.95 154.09-26.95ZM147.74-7L150.69-7Q152.14-7 152.87-7.35 153.59-7.7 153.84-8.9L153.84-8.9 155.74-19.35 152.69-19.35Q151.29-19.35 150.52-19 149.74-18.65 149.59-17.5L149.59-17.5 147.74-7ZM118.29-12.05L138.24-12.05Q138.04-10.5 137.99-9.95L137.99-9.95 118.29-12.05ZM119.19-16.85L139.19-16.85 138.74-14.75 119.19-16.85ZM118.49-7.25L137.94-7.25Q137.94-6.45 138.14-5.15L138.14-5.15 118.49-7.25ZM121.19-21.65L140.94-21.65Q140.34-20.35 140.09-19.65L140.09-19.65 121.19-21.65ZM122.84-2.4L138.99-2.4Q139.59-1.2 140.29-0.55L140.29-0.55 122.84-2.4ZM127.89-26.45L145.29-26.45Q144.09-25.75 143.24-24.8L143.24-24.8 127.89-26.45ZM181.39-26.45L194.09-26.45Q201.39-26.45 201.39-19.85L201.39-19.85Q201.39-16.85 200.19-13.63 198.99-10.4 196.14-8.8L196.14-8.8 198.99 0 189.64 0 187.74-7.7 186.54-7.7 185.19 0 176.79 0 181.39-26.45ZM191.94-16.05L192.24-17.8Q192.24-17.85 192.29-18.3L192.29-18.3Q192.29-19.15 189.64-19.15L189.64-19.15 188.54-19.15 187.74-14.55 189.34-14.55Q191.64-14.55 191.94-16.05L191.94-16.05ZM175.54-2.4L175.14-0.15 153.94-2.4 175.54-2.4ZM177.24-12.05L176.84-9.8 155.64-12.05 177.24-12.05ZM178.09-16.85L177.69-14.6 156.49-16.85 178.09-16.85ZM178.94-21.65L178.54-19.4 157.34-21.65 178.94-21.65ZM179.74-26.45L179.39-24.2 158.19-26.45 179.74-26.45ZM176.39-7.25L175.99-5 154.79-7.25 176.39-7.25ZM235.34-26.45L233.99-18.95 228.59-18.95 225.29 0 216.49 0 219.79-18.95 214.24-18.95 215.59-26.45 235.34-26.45ZM215.39-2.4L214.99-0.15 193.79-2.4 215.39-2.4ZM217.09-12.05L216.69-9.8 195.49-12.05 217.09-12.05ZM217.94-16.85L217.54-14.6 196.34-16.85 217.94-16.85ZM213.14-21.65L212.74-19.4 191.54-21.65 213.14-21.65ZM213.94-26.45L213.59-24.2 192.39-26.45 213.94-26.45ZM216.24-7.25L215.84-5 194.64-7.25 216.24-7.25Z" opacity="1" transform="matrix(1,0,0,1,0,0)" fill="#ffffff" class="wordmark-text-0" data-fill-palette-color="primary"></path></svg></g><g><svg xmlns="http://www.w3.org/2000/svg" xmlns:xlink="http://www.w3.org/1999/xlink" version="1.1" x="406.04409999999996" y="0" viewBox="35.1 5 29.70000000000001 90" enable-background="new 0 0 100 100" xml:space="preserve" height="44.575900000000004" width="14.710047000000007" class="icon-cg-0" data-fill-palette-color="accent" id="cg-0"><path d="M50 95c-8.2 0-14.8-6.2-14.8-13.9h1.2c0 7 6.1 12.7 13.6 12.7 7.5 0 13.6-5.7 13.6-12.7h1.2C64.8 88.8 58.2 95 50 95zM36.4 43.6h-1.2v37.5h1.2V43.6zM64.8 43.6h-1.2v37.5h1.2V43.6zM46.9 36.1V12.2c0-0.3-0.3-0.5-0.6-0.5-0.3 0-0.6 0.2-0.6 0.5v23.9c0 0.3 0.3 0.5 0.6 0.5C46.6 36.7 46.9 36.4 46.9 36.1zM54.4 36.1V12.2c0-0.3-0.3-0.5-0.6-0.5-0.3 0-0.6 0.2-0.6 0.5v23.9c0 0.3 0.3 0.5 0.6 0.5C54.1 36.7 54.4 36.4 54.4 36.1zM53.5 9.9c-0.2 0.4-0.4 0.8-0.8 1.1 0.2 0.4 0.4 0.8 0.4 1.3 0 1.6-1.4 2.9-3.1 2.9-1.7 0-3.1-1.3-3.1-2.9 0-0.5 0.1-0.9 0.4-1.3-0.3-0.3-0.6-0.7-0.8-1.1-0.5 0.7-0.8 1.5-0.8 2.4 0 2.3 2 4.1 4.4 4.1 2.4 0 4.4-1.9 4.4-4.1C54.4 11.4 54.1 10.6 53.5 9.9zM52.5 9c-0.1 0.4-0.3 0.8-0.6 1.1 0.3 0.3 0.6 0.6 0.8 0.9 0.3-0.3 0.6-0.7 0.8-1.1C53.2 9.5 52.9 9.2 52.5 9zM51.9 10.1c-0.5 0.5-1.2 0.8-1.9 0.8s-1.5-0.3-1.9-0.8c-0.3 0.3-0.6 0.6-0.8 0.9 0.7 0.7 1.7 1.1 2.8 1.1 1.1 0 2.1-0.4 2.8-1.1C52.6 10.7 52.3 10.4 51.9 10.1zM50 5c-2.1 0-3.8 1.6-3.8 3.6 0 0.5 0.1 0.9 0.3 1.3 0.2 0.4 0.4 0.8 0.8 1.1 0.2-0.4 0.5-0.7 0.8-0.9-0.3-0.3-0.5-0.7-0.6-1.1 0-0.1 0-0.2 0-0.4 0-1.3 1.1-2.3 2.5-2.3 1.4 0 2.5 1 2.5 2.3 0 0.1 0 0.3 0 0.4 0.4 0.3 0.7 0.6 1 0.9 0.2-0.4 0.3-0.9 0.3-1.3C53.8 6.6 52.1 5 50 5zM47.5 8.6h-1.3v5.6h1.3V8.6zM53.8 8.6h-1.3v5.6h1.3V8.6zM46.2 30.1c-6.4 1.6-11.1 7-11.1 13.5 0 0.3 0.3 0.6 0.6 0.6 0.3 0 0.6-0.3 0.6-0.6 0-5.8 4.2-10.6 9.8-12.2V30.1zM53.7 30.1v1.3c5.7 1.5 9.8 6.4 9.8 12.2 0 0.3 0.3 0.6 0.6 0.6 0.3 0 0.6-0.3 0.6-0.6C64.8 37.1 60.1 31.7 53.7 30.1z" fill="#81ffd9" data-fill-palette-color="accent"></path></svg></g></svg></g></svg></g></svg></g></svg></g></svg></g><defs></defs></svg><rect width="395.52" height="41.90252215862296" fill="none" stroke="none" visibility="hidden"></rect></g></svg></g></svg>